# xmcd
#
# Track frame offsets:
#	182
#	11930
#	26920
#	40607
#	49612
#	60360
#	75140
#	89012
#	100915
#	113062
#	128362
#	137782
#	150112
#	163960
#
# Disc length: 2382 seconds
#
# Revision: 1
# Processed by: cddbd v1.5.2PL0 Copyright (c) Steve Scherf et al.
# Submitted via: audiograbber 1.83.01
#
DISCID=a1094c0e
DTITLE=Bjarne Lisby - God jul og bedre nytår
DYEAR=1990
DGENRE=Christmas
TTITLE0=Glædelig jul (1990)
TTITLE1=Løb Rudolf løb (1990)
TTITLE2=Julia nissen (kalenderpigen for december) (1990)
TTITLE3=Jul jo, det er (1990)
TTITLE4=Julenødderne (1990)
TTITLE5=Jul i barndomshjemmet (1990)
TTITLE6=En tur i kanen (1990)
TTITLE7=Bægerklang (julefrokostsangen) (1990)
TTITLE8=Julemanden bor på Grønland (1990)
TTITLE9=Du har alt det, som jeg ønsker mig til jul (1990)
TTITLE10=Mandens udvikling (1990)
TTITLE11=I julegave giver jeg dig mit hjerte (1990)
TTITLE12=For børnenes skyld (1990)
TTITLE13=Nytårsvalsen (1990)
EXTD=
EXTT0=
EXTT1=
EXTT2=
EXTT3=
EXTT4=
EXTT5=
EXTT6=
EXTT7=
EXTT8=
EXTT9=
EXTT10=
EXTT11=
EXTT12=
EXTT13=
PLAYORDER=
